<?xml version="1.0" standalone="no"?>
<!DOCTYPE svg PUBLIC "-//W3C//DTD SVG 20010904//EN"
 "http://www.w3.org/TR/2001/REC-SVG-20010904/DTD/svg10.dtd">
<svg version="1.0" xmlns="http://www.w3.org/2000/svg"
 width="72.000000pt" height="72.000000pt" viewBox="0 0 72.000000 72.000000"
 preserveAspectRatio="xMidYMid meet">
<metadata>
Created by potrace 1.11, written by Peter Selinger 2001-2013
</metadata>
<g transform="translate(0.000000,72.000000) scale(0.100000,-0.100000)"
fill="#000000" stroke="none">
<path d="M342 662 c-12 -28 -22 -58 -22 -67 0 -10 -19 3 -50 37 l-51 53 3 -71
3 -71 -52 24 c-29 14 -58 23 -63 21 -5 -2 4 -29 20 -60 l30 -58 -61 1 c-33 1
-62 -1 -65 -4 -3 -3 17 -24 45 -48 l50 -43 -51 -20 c-29 -12 -53 -26 -55 -32
-2 -6 18 -17 44 -24 26 -6 54 -14 60 -16 8 -2 -3 -20 -27 -45 -22 -23 -40 -46
-40 -51 0 -11 57 -10 98 1 17 5 32 9 32 8 0 -1 -9 -26 -20 -55 -11 -29 -20
-57 -20 -62 0 -13 27 -2 78 31 l42 28 1 -49 c3 -92 8 -95 55 -30 l37 52 31
-58 30 -57 13 31 c7 17 14 49 15 71 l3 40 25 -23 c29 -26 72 -56 81 -56 6 0
-1 48 -15 101 l-8 26 53 -13 c77 -20 83 -19 62 14 -9 15 -28 39 -42 55 -13 15
-23 27 -20 28 2 0 15 2 29 5 77 12 90 16 90 24 0 6 -22 22 -50 38 -46 25 -63
42 -42 42 5 0 29 14 53 32 43 31 44 32 19 39 -14 4 -44 7 -67 8 -24 1 -43 3
-43 6 0 3 14 24 30 47 41 57 40 69 -7 56 -21 -6 -51 -17 -67 -25 l-28 -15 7
44 c12 66 13 98 5 98 -4 0 -30 -22 -58 -50 l-50 -49 -7 37 c-3 20 -14 52 -24
71 l-18 33 -21 -50z m50 -107 c2 -25 6 -45 11 -45 4 0 7 4 7 9 0 13 79 111 89
111 9 0 -1 -58 -19 -105 -14 -37 -9 -40 33 -15 19 11 49 25 66 30 29 8 30 7
20 -12 -6 -11 -26 -36 -44 -56 l-33 -37 69 3 c42 2 69 0 69 -6 0 -6 -28 -24
-62 -40 -60 -28 -61 -29 -32 -36 33 -7 116 -47 111 -53 -2 -2 -33 -5 -68 -7
-35 -3 -66 -5 -68 -5 -2 -1 17 -22 44 -49 42 -41 46 -47 27 -50 -11 -2 -40 6
-63 17 -23 12 -44 20 -45 18 -2 -2 6 -29 18 -60 11 -32 18 -60 14 -64 -3 -4
-28 14 -54 40 l-47 47 -1 -61 c-2 -87 -17 -94 -44 -20 -13 34 -24 61 -26 61
-2 0 -12 -19 -22 -42 -11 -24 -27 -52 -36 -63 -16 -19 -17 -16 -14 52 3 48 0
69 -7 64 -5 -4 -29 -23 -52 -41 -24 -18 -46 -30 -50 -27 -3 4 7 33 24 65 l30
58 -55 -18 c-30 -10 -64 -18 -75 -18 -20 0 -19 1 4 26 13 14 39 35 58 47 l35
21 -67 11 c-36 6 -69 13 -72 17 -7 7 69 38 94 38 33 0 31 13 -7 32 -42 23 -72
47 -72 59 0 5 6 7 12 4 7 -2 37 -6 66 -10 l53 -6 -36 52 c-54 78 -47 87 29 38
27 -16 50 -28 52 -26 2 2 -1 19 -6 38 -6 18 -10 49 -10 67 l0 34 24 -29 c13
-15 32 -43 43 -61 l21 -33 7 47 c4 26 11 59 17 73 l10 26 14 -32 c8 -18 15
-53 16 -78z"/>
</g>
</svg>
